<svg width="307" height="253" viewBox="0 0 307 253" fill="none" xmlns="http://www.w3.org/2000/svg">
<mask id="path-1-outside-1_9309_12284" maskUnits="userSpaceOnUse" x="1" y="172.029" width="305" height="58" fill="black">
<rect fill="white" x="1" y="172.029" width="305" height="58"/>
<path d="M19.982 181.468C24.6636 181.468 28.7706 182.383 32.3031 184.213C35.8782 186.043 38.6233 188.661 40.5385 192.066C42.4963 195.428 43.4752 199.343 43.4752 203.812C43.4752 208.281 42.4963 212.197 40.5385 215.559C38.6233 218.878 35.8782 221.453 32.3031 223.283C28.7706 225.114 24.6636 226.029 19.982 226.029H4.40497V181.468H19.982ZM19.6628 218.432C24.3444 218.432 27.962 217.155 30.5156 214.601C33.0692 212.048 34.346 208.451 34.346 203.812C34.346 199.173 33.0692 195.556 30.5156 192.959C27.962 190.321 24.3444 189.001 19.6628 189.001H13.3426V218.432H19.6628ZM54.6981 186.448C53.1233 186.448 51.804 185.958 50.74 184.979C49.7185 183.958 49.2078 182.702 49.2078 181.213C49.2078 179.723 49.7185 178.489 50.74 177.51C51.804 176.489 53.1233 175.978 54.6981 175.978C56.2728 175.978 57.5709 176.489 58.5923 177.51C59.6563 178.489 60.1883 179.723 60.1883 181.213C60.1883 182.702 59.6563 183.958 58.5923 184.979C57.5709 185.958 56.2728 186.448 54.6981 186.448ZM59.103 190.661V226.029H50.1654V190.661H59.103ZM81.4675 226.603C78.5735 226.603 75.9773 226.092 73.679 225.071C71.3808 224.007 69.5507 222.581 68.1888 220.794C66.8694 219.006 66.1459 217.027 66.0182 214.857H75.0197C75.1899 216.218 75.8496 217.346 76.9987 218.24C78.1904 219.134 79.6587 219.581 81.4037 219.581C83.1061 219.581 84.4255 219.24 85.3618 218.559C86.3407 217.878 86.8301 217.006 86.8301 215.942C86.8301 214.793 86.2343 213.941 85.0426 213.388C83.8935 212.792 82.0421 212.154 79.4885 211.473C76.8498 210.835 74.6792 210.175 72.9768 209.494C71.317 208.813 69.8699 207.77 68.6357 206.366C67.444 204.961 66.8481 203.067 66.8481 200.684C66.8481 198.726 67.4014 196.939 68.508 195.321C69.6571 193.704 71.2744 192.427 73.3598 191.491C75.4879 190.555 77.9776 190.087 80.8291 190.087C85.0426 190.087 88.4048 191.151 90.9159 193.279C93.4269 195.364 94.8101 198.194 95.0655 201.769H86.5109C86.3832 200.365 85.7874 199.258 84.7234 198.45C83.702 197.598 82.3188 197.173 80.5738 197.173C78.9565 197.173 77.701 197.471 76.8072 198.067C75.956 198.662 75.5304 199.492 75.5304 200.556C75.5304 201.748 76.1263 202.663 77.3179 203.301C78.5096 203.897 80.361 204.514 82.872 205.153C85.4256 205.791 87.5324 206.451 89.1922 207.132C90.8521 207.813 92.2778 208.877 93.4695 210.324C94.7037 211.728 95.3421 213.601 95.3847 215.942C95.3847 217.985 94.8101 219.815 93.661 221.432C92.5545 223.049 90.9372 224.326 88.8092 225.262C86.7237 226.156 84.2765 226.603 81.4675 226.603ZM122.639 190.15C125.321 190.15 127.704 190.746 129.79 191.938C131.875 193.087 133.492 194.811 134.641 197.109C135.833 199.365 136.429 202.088 136.429 205.281V226.029H127.491V206.493C127.491 203.685 126.789 201.535 125.385 200.046C123.98 198.513 122.065 197.747 119.639 197.747C117.171 197.747 115.213 198.513 113.766 200.046C112.361 201.535 111.659 203.685 111.659 206.493V226.029H102.721V178.787H111.659V195.066C112.808 193.534 114.34 192.342 116.255 191.491C118.171 190.597 120.299 190.15 122.639 190.15ZM160.505 181.468C165.187 181.468 169.294 182.383 172.826 184.213C176.401 186.043 179.147 188.661 181.062 192.066C183.019 195.428 183.998 199.343 183.998 203.812C183.998 208.281 183.019 212.197 181.062 215.559C179.147 218.878 176.401 221.453 172.826 223.283C169.294 225.114 165.187 226.029 160.505 226.029H144.928V181.468H160.505ZM160.186 218.432C164.868 218.432 168.485 217.155 171.039 214.601C173.592 212.048 174.869 208.451 174.869 203.812C174.869 199.173 173.592 195.556 171.039 192.959C168.485 190.321 164.868 189.001 160.186 189.001H153.866V218.432H160.186ZM188.39 208.217C188.39 204.642 189.093 201.471 190.497 198.705C191.944 195.939 193.881 193.811 196.307 192.321C198.775 190.831 201.52 190.087 204.542 190.087C207.181 190.087 209.479 190.619 211.437 191.683C213.437 192.747 215.033 194.087 216.225 195.704V190.661H225.226V226.029H216.225V220.858C215.076 222.517 213.48 223.901 211.437 225.007C209.436 226.071 207.117 226.603 204.478 226.603C201.499 226.603 198.775 225.837 196.307 224.305C193.881 222.773 191.944 220.623 190.497 217.857C189.093 215.048 188.39 211.835 188.39 208.217ZM216.225 208.345C216.225 206.174 215.799 204.323 214.948 202.791C214.097 201.216 212.948 200.024 211.501 199.216C210.053 198.364 208.5 197.939 206.84 197.939C205.18 197.939 203.648 198.343 202.244 199.152C200.839 199.96 199.69 201.152 198.796 202.727C197.945 204.259 197.52 206.089 197.52 208.217C197.52 210.345 197.945 212.218 198.796 213.835C199.69 215.41 200.839 216.623 202.244 217.474C203.691 218.325 205.223 218.751 206.84 218.751C208.5 218.751 210.053 218.346 211.501 217.538C212.948 216.687 214.097 215.495 214.948 213.963C215.799 212.388 216.225 210.515 216.225 208.345ZM247.489 226.603C244.595 226.603 241.999 226.092 239.701 225.071C237.403 224.007 235.573 222.581 234.211 220.794C232.891 219.006 232.168 217.027 232.04 214.857H241.042C241.212 216.218 241.871 217.346 243.021 218.24C244.212 219.134 245.681 219.581 247.426 219.581C249.128 219.581 250.447 219.24 251.384 218.559C252.363 217.878 252.852 217.006 252.852 215.942C252.852 214.793 252.256 213.941 251.064 213.388C249.915 212.792 248.064 212.154 245.51 211.473C242.872 210.835 240.701 210.175 238.999 209.494C237.339 208.813 235.892 207.77 234.658 206.366C233.466 204.961 232.87 203.067 232.87 200.684C232.87 198.726 233.423 196.939 234.53 195.321C235.679 193.704 237.296 192.427 239.382 191.491C241.51 190.555 244 190.087 246.851 190.087C251.064 190.087 254.427 191.151 256.938 193.279C259.449 195.364 260.832 198.194 261.087 201.769H252.533C252.405 200.365 251.809 199.258 250.745 198.45C249.724 197.598 248.341 197.173 246.596 197.173C244.978 197.173 243.723 197.471 242.829 198.067C241.978 198.662 241.552 199.492 241.552 200.556C241.552 201.748 242.148 202.663 243.34 203.301C244.532 203.897 246.383 204.514 248.894 205.153C251.448 205.791 253.554 206.451 255.214 207.132C256.874 207.813 258.3 208.877 259.491 210.324C260.726 211.728 261.364 213.601 261.407 215.942C261.407 217.985 260.832 219.815 259.683 221.432C258.576 223.049 256.959 224.326 254.831 225.262C252.746 226.156 250.298 226.603 247.489 226.603ZM288.661 190.15C291.343 190.15 293.726 190.746 295.811 191.938C297.897 193.087 299.514 194.811 300.663 197.109C301.855 199.365 302.451 202.088 302.451 205.281V226.029H293.513V206.493C293.513 203.685 292.811 201.535 291.406 200.046C290.002 198.513 288.087 197.747 285.661 197.747C283.192 197.747 281.235 198.513 279.788 200.046C278.383 201.535 277.681 203.685 277.681 206.493V226.029H268.743V178.787H277.681V195.066C278.83 193.534 280.362 192.342 282.277 191.491C284.193 190.597 286.321 190.15 288.661 190.15Z"/>
</mask>
<path d="M19.982 181.468C24.6636 181.468 28.7706 182.383 32.3031 184.213C35.8782 186.043 38.6233 188.661 40.5385 192.066C42.4963 195.428 43.4752 199.343 43.4752 203.812C43.4752 208.281 42.4963 212.197 40.5385 215.559C38.6233 218.878 35.8782 221.453 32.3031 223.283C28.7706 225.114 24.6636 226.029 19.982 226.029H4.40497V181.468H19.982ZM19.6628 218.432C24.3444 218.432 27.962 217.155 30.5156 214.601C33.0692 212.048 34.346 208.451 34.346 203.812C34.346 199.173 33.0692 195.556 30.5156 192.959C27.962 190.321 24.3444 189.001 19.6628 189.001H13.3426V218.432H19.6628ZM54.6981 186.448C53.1233 186.448 51.804 185.958 50.74 184.979C49.7185 183.958 49.2078 182.702 49.2078 181.213C49.2078 179.723 49.7185 178.489 50.74 177.51C51.804 176.489 53.1233 175.978 54.6981 175.978C56.2728 175.978 57.5709 176.489 58.5923 177.51C59.6563 178.489 60.1883 179.723 60.1883 181.213C60.1883 182.702 59.6563 183.958 58.5923 184.979C57.5709 185.958 56.2728 186.448 54.6981 186.448ZM59.103 190.661V226.029H50.1654V190.661H59.103ZM81.4675 226.603C78.5735 226.603 75.9773 226.092 73.679 225.071C71.3808 224.007 69.5507 222.581 68.1888 220.794C66.8694 219.006 66.1459 217.027 66.0182 214.857H75.0197C75.1899 216.218 75.8496 217.346 76.9987 218.24C78.1904 219.134 79.6587 219.581 81.4037 219.581C83.1061 219.581 84.4255 219.24 85.3618 218.559C86.3407 217.878 86.8301 217.006 86.8301 215.942C86.8301 214.793 86.2343 213.941 85.0426 213.388C83.8935 212.792 82.0421 212.154 79.4885 211.473C76.8498 210.835 74.6792 210.175 72.9768 209.494C71.317 208.813 69.8699 207.77 68.6357 206.366C67.444 204.961 66.8481 203.067 66.8481 200.684C66.8481 198.726 67.4014 196.939 68.508 195.321C69.6571 193.704 71.2744 192.427 73.3598 191.491C75.4879 190.555 77.9776 190.087 80.8291 190.087C85.0426 190.087 88.4048 191.151 90.9159 193.279C93.4269 195.364 94.8101 198.194 95.0655 201.769H86.5109C86.3832 200.365 85.7874 199.258 84.7234 198.45C83.702 197.598 82.3188 197.173 80.5738 197.173C78.9565 197.173 77.701 197.471 76.8072 198.067C75.956 198.662 75.5304 199.492 75.5304 200.556C75.5304 201.748 76.1263 202.663 77.3179 203.301C78.5096 203.897 80.361 204.514 82.872 205.153C85.4256 205.791 87.5324 206.451 89.1922 207.132C90.8521 207.813 92.2778 208.877 93.4695 210.324C94.7037 211.728 95.3421 213.601 95.3847 215.942C95.3847 217.985 94.8101 219.815 93.661 221.432C92.5545 223.049 90.9372 224.326 88.8092 225.262C86.7237 226.156 84.2765 226.603 81.4675 226.603ZM122.639 190.15C125.321 190.15 127.704 190.746 129.79 191.938C131.875 193.087 133.492 194.811 134.641 197.109C135.833 199.365 136.429 202.088 136.429 205.281V226.029H127.491V206.493C127.491 203.685 126.789 201.535 125.385 200.046C123.98 198.513 122.065 197.747 119.639 197.747C117.171 197.747 115.213 198.513 113.766 200.046C112.361 201.535 111.659 203.685 111.659 206.493V226.029H102.721V178.787H111.659V195.066C112.808 193.534 114.34 192.342 116.255 191.491C118.171 190.597 120.299 190.15 122.639 190.15ZM160.505 181.468C165.187 181.468 169.294 182.383 172.826 184.213C176.401 186.043 179.147 188.661 181.062 192.066C183.019 195.428 183.998 199.343 183.998 203.812C183.998 208.281 183.019 212.197 181.062 215.559C179.147 218.878 176.401 221.453 172.826 223.283C169.294 225.114 165.187 226.029 160.505 226.029H144.928V181.468H160.505ZM160.186 218.432C164.868 218.432 168.485 217.155 171.039 214.601C173.592 212.048 174.869 208.451 174.869 203.812C174.869 199.173 173.592 195.556 171.039 192.959C168.485 190.321 164.868 189.001 160.186 189.001H153.866V218.432H160.186ZM188.39 208.217C188.39 204.642 189.093 201.471 190.497 198.705C191.944 195.939 193.881 193.811 196.307 192.321C198.775 190.831 201.52 190.087 204.542 190.087C207.181 190.087 209.479 190.619 211.437 191.683C213.437 192.747 215.033 194.087 216.225 195.704V190.661H225.226V226.029H216.225V220.858C215.076 222.517 213.48 223.901 211.437 225.007C209.436 226.071 207.117 226.603 204.478 226.603C201.499 226.603 198.775 225.837 196.307 224.305C193.881 222.773 191.944 220.623 190.497 217.857C189.093 215.048 188.39 211.835 188.39 208.217ZM216.225 208.345C216.225 206.174 215.799 204.323 214.948 202.791C214.097 201.216 212.948 200.024 211.501 199.216C210.053 198.364 208.5 197.939 206.84 197.939C205.18 197.939 203.648 198.343 202.244 199.152C200.839 199.96 199.69 201.152 198.796 202.727C197.945 204.259 197.52 206.089 197.52 208.217C197.52 210.345 197.945 212.218 198.796 213.835C199.69 215.41 200.839 216.623 202.244 217.474C203.691 218.325 205.223 218.751 206.84 218.751C208.5 218.751 210.053 218.346 211.501 217.538C212.948 216.687 214.097 215.495 214.948 213.963C215.799 212.388 216.225 210.515 216.225 208.345ZM247.489 226.603C244.595 226.603 241.999 226.092 239.701 225.071C237.403 224.007 235.573 222.581 234.211 220.794C232.891 219.006 232.168 217.027 232.04 214.857H241.042C241.212 216.218 241.871 217.346 243.021 218.24C244.212 219.134 245.681 219.581 247.426 219.581C249.128 219.581 250.447 219.24 251.384 218.559C252.363 217.878 252.852 217.006 252.852 215.942C252.852 214.793 252.256 213.941 251.064 213.388C249.915 212.792 248.064 212.154 245.51 211.473C242.872 210.835 240.701 210.175 238.999 209.494C237.339 208.813 235.892 207.77 234.658 206.366C233.466 204.961 232.87 203.067 232.87 200.684C232.87 198.726 233.423 196.939 234.53 195.321C235.679 193.704 237.296 192.427 239.382 191.491C241.51 190.555 244 190.087 246.851 190.087C251.064 190.087 254.427 191.151 256.938 193.279C259.449 195.364 260.832 198.194 261.087 201.769H252.533C252.405 200.365 251.809 199.258 250.745 198.45C249.724 197.598 248.341 197.173 246.596 197.173C244.978 197.173 243.723 197.471 242.829 198.067C241.978 198.662 241.552 199.492 241.552 200.556C241.552 201.748 242.148 202.663 243.34 203.301C244.532 203.897 246.383 204.514 248.894 205.153C251.448 205.791 253.554 206.451 255.214 207.132C256.874 207.813 258.3 208.877 259.491 210.324C260.726 211.728 261.364 213.601 261.407 215.942C261.407 217.985 260.832 219.815 259.683 221.432C258.576 223.049 256.959 224.326 254.831 225.262C252.746 226.156 250.298 226.603 247.489 226.603ZM288.661 190.15C291.343 190.15 293.726 190.746 295.811 191.938C297.897 193.087 299.514 194.811 300.663 197.109C301.855 199.365 302.451 202.088 302.451 205.281V226.029H293.513V206.493C293.513 203.685 292.811 201.535 291.406 200.046C290.002 198.513 288.087 197.747 285.661 197.747C283.192 197.747 281.235 198.513 279.788 200.046C278.383 201.535 277.681 203.685 277.681 206.493V226.029H268.743V178.787H277.681V195.066C278.83 193.534 280.362 192.342 282.277 191.491C284.193 190.597 286.321 190.15 288.661 190.15Z" fill="#FFFDF9"/>
<path d="M32.3031 184.213L30.8348 187.047L30.8417 187.051L30.8486 187.055L32.3031 184.213ZM40.5385 192.066L37.7564 193.631L37.7681 193.651L37.7801 193.672L40.5385 192.066ZM40.5385 215.559L37.78 213.953L37.7736 213.964L40.5385 215.559ZM32.3031 223.283L30.8486 220.442L30.8417 220.446L30.8348 220.449L32.3031 223.283ZM4.40497 226.029H1.21296V229.221H4.40497V226.029ZM4.40497 181.468V178.276H1.21296V181.468H4.40497ZM30.5156 214.601L28.2585 212.344L28.2585 212.344L30.5156 214.601ZM30.5156 192.959L28.2218 195.179L28.2308 195.188L28.2399 195.198L30.5156 192.959ZM13.3426 189.001V185.809H10.1506V189.001H13.3426ZM13.3426 218.432H10.1506V221.624H13.3426V218.432ZM19.982 181.468V184.66C24.2427 184.66 27.8299 185.491 30.8348 187.047L32.3031 184.213L33.7715 181.379C29.7114 179.276 25.0844 178.276 19.982 178.276V181.468ZM32.3031 184.213L30.8486 187.055C33.882 188.607 36.1578 190.788 37.7564 193.631L40.5385 192.066L43.3206 190.501C41.0889 186.533 37.8744 183.479 33.7576 181.372L32.3031 184.213ZM40.5385 192.066L37.7801 193.672C39.4139 196.478 40.2832 199.823 40.2832 203.812H43.4752H46.6672C46.6672 198.864 45.5787 194.378 43.297 190.459L40.5385 192.066ZM43.4752 203.812H40.2832C40.2832 207.802 39.4139 211.147 37.7801 213.953L40.5385 215.559L43.297 217.165C45.5787 213.246 46.6672 208.76 46.6672 203.812H43.4752ZM40.5385 215.559L37.7736 213.964C36.1811 216.724 33.9035 218.878 30.8486 220.442L32.3031 223.283L33.7576 226.125C37.8529 224.028 41.0655 221.033 43.3034 217.154L40.5385 215.559ZM32.3031 223.283L30.8348 220.449C27.8299 222.006 24.2427 222.837 19.982 222.837V226.029V229.221C25.0844 229.221 29.7114 228.221 33.7715 226.118L32.3031 223.283ZM19.982 226.029V222.837H4.40497V226.029V229.221H19.982V226.029ZM4.40497 226.029H7.59698V181.468H4.40497H1.21296V226.029H4.40497ZM4.40497 181.468V184.66H19.982V181.468V178.276H4.40497V181.468ZM19.6628 218.432V221.624C24.9292 221.624 29.4578 220.173 32.7727 216.858L30.5156 214.601L28.2585 212.344C26.4662 214.136 23.7596 215.24 19.6628 215.24V218.432ZM30.5156 214.601L32.7727 216.858C36.0823 213.549 37.538 209.046 37.538 203.812H34.346H31.154C31.154 207.857 30.0561 210.546 28.2585 212.344L30.5156 214.601ZM34.346 203.812H37.538C37.538 198.576 36.0814 194.066 32.7913 190.721L30.5156 192.959L28.2399 195.198C30.057 197.045 31.154 199.77 31.154 203.812H34.346ZM30.5156 192.959L32.8094 190.74C29.4999 187.32 24.9584 185.809 19.6628 185.809V189.001V192.193C23.7304 192.193 26.4241 193.321 28.2218 195.179L30.5156 192.959ZM19.6628 189.001V185.809H13.3426V189.001V192.193H19.6628V189.001ZM13.3426 189.001H10.1506V218.432H13.3426H16.5346V189.001H13.3426ZM13.3426 218.432V221.624H19.6628V218.432V215.24H13.3426V218.432ZM50.74 184.979L48.4829 187.236L48.5299 187.283L48.5788 187.328L50.74 184.979ZM50.74 177.51L52.9485 179.815L52.9505 179.813L50.74 177.51ZM58.5923 177.51L56.3352 179.767L56.3822 179.814L56.4311 179.859L58.5923 177.51ZM58.5923 184.979L60.8009 187.284L60.8029 187.282L58.5923 184.979ZM59.103 190.661H62.295V187.469H59.103V190.661ZM59.103 226.029V229.221H62.295V226.029H59.103ZM50.1654 226.029H46.9734V229.221H50.1654V226.029ZM50.1654 190.661V187.469H46.9734V190.661H50.1654ZM54.6981 186.448V183.256C53.8463 183.256 53.3212 183.017 52.9011 182.63L50.74 184.979L48.5788 187.328C50.2868 188.9 52.4004 189.64 54.6981 189.64V186.448ZM50.74 184.979L52.9971 182.722C52.5948 182.32 52.3998 181.885 52.3998 181.213H49.2078H46.0158C46.0158 183.519 46.8423 185.596 48.4829 187.236L50.74 184.979ZM49.2078 181.213H52.3998C52.3998 180.542 52.5916 180.157 52.9485 179.815L50.74 177.51L48.5314 175.205C46.8455 176.821 46.0158 178.905 46.0158 181.213H49.2078ZM50.74 177.51L52.9505 179.813C53.3773 179.403 53.886 179.17 54.6981 179.17V175.978V172.786C52.3607 172.786 50.2307 173.574 48.5294 175.207L50.74 177.51ZM54.6981 175.978V179.17C55.5103 179.17 55.9693 179.401 56.3352 179.767L58.5923 177.51L60.8494 175.253C59.1724 173.576 57.0353 172.786 54.6981 172.786V175.978ZM58.5923 177.51L56.4311 179.859C56.8159 180.213 56.9963 180.585 56.9963 181.213H60.1883H63.3803C63.3803 178.861 62.4967 176.765 60.7535 175.161L58.5923 177.51ZM60.1883 181.213H56.9963C56.9963 181.843 56.8117 182.264 56.3817 182.677L58.5923 184.979L60.8029 187.282C62.5009 185.652 63.3803 183.562 63.3803 181.213H60.1883ZM58.5923 184.979L56.3837 182.675C56.0258 183.018 55.551 183.256 54.6981 183.256V186.448V189.64C56.9946 189.64 59.1159 188.899 60.8009 187.284L58.5923 184.979ZM59.103 190.661H55.911V226.029H59.103H62.295V190.661H59.103ZM59.103 226.029V222.837H50.1654V226.029V229.221H59.103V226.029ZM50.1654 226.029H53.3574V190.661H50.1654H46.9734V226.029H50.1654ZM50.1654 190.661V193.853H59.103V190.661V187.469H50.1654V190.661ZM73.679 225.071L72.338 227.968L72.3603 227.978L72.3826 227.988L73.679 225.071ZM68.1888 220.794L65.6206 222.689L65.635 222.709L65.6498 222.728L68.1888 220.794ZM66.0182 214.857V211.665H62.6329L62.8317 215.044L66.0182 214.857ZM75.0197 214.857L78.187 214.461L77.8375 211.665H75.0197V214.857ZM76.9987 218.24L75.039 220.76L75.0611 220.777L75.0835 220.794L76.9987 218.24ZM85.3618 218.559L83.539 215.939L83.5114 215.958L83.4843 215.978L85.3618 218.559ZM85.0426 213.388L83.5733 216.222L83.6352 216.254L83.6984 216.283L85.0426 213.388ZM79.4885 211.473L80.311 208.389L80.2751 208.379L80.2391 208.371L79.4885 211.473ZM72.9768 209.494L71.7653 212.447L71.7783 212.452L71.7913 212.458L72.9768 209.494ZM68.6357 206.366L66.2017 208.431L66.2197 208.452L66.2379 208.473L68.6357 206.366ZM68.508 195.321L65.9059 193.473L65.8896 193.496L65.8736 193.519L68.508 195.321ZM73.3598 191.491L72.0743 188.569L72.0633 188.574L72.0524 188.579L73.3598 191.491ZM90.9159 193.279L88.8522 195.714L88.8643 195.724L88.8765 195.734L90.9159 193.279ZM95.0655 201.769V204.961H98.4936L98.2494 201.542L95.0655 201.769ZM86.5109 201.769L83.332 202.058L83.5959 204.961H86.5109V201.769ZM84.7234 198.45L82.6799 200.902L82.7349 200.948L82.792 200.991L84.7234 198.45ZM76.8072 198.067L75.0366 195.411L75.0064 195.431L74.9767 195.452L76.8072 198.067ZM77.3179 203.301L75.8106 206.115L75.8502 206.136L75.8904 206.156L77.3179 203.301ZM82.872 205.153L82.0855 208.246L82.0979 208.25L82.872 205.153ZM93.4695 210.324L91.0055 212.353L91.038 212.393L91.0718 212.431L93.4695 210.324ZM95.3847 215.942H98.5767V215.913L98.5762 215.884L95.3847 215.942ZM93.661 221.432L91.059 219.583L91.0426 219.606L91.0266 219.63L93.661 221.432ZM88.8092 225.262L90.0666 228.196L90.0807 228.19L90.0947 228.184L88.8092 225.262ZM81.4675 226.603V223.411C78.9531 223.411 76.8085 222.969 74.9754 222.154L73.679 225.071L72.3826 227.988C75.1461 229.216 78.1938 229.795 81.4675 229.795V226.603ZM73.679 225.071L75.0201 222.174C73.1329 221.301 71.7365 220.183 70.7278 218.859L68.1888 220.794L65.6498 222.728C67.3649 224.979 69.6287 226.713 72.338 227.968L73.679 225.071ZM68.1888 220.794L70.757 218.898C69.7963 217.597 69.2953 216.208 69.2047 214.669L66.0182 214.857L62.8317 215.044C62.9965 217.846 63.9425 220.416 65.6206 222.689L68.1888 220.794ZM66.0182 214.857V218.049H75.0197V214.857V211.665H66.0182V214.857ZM75.0197 214.857L71.8523 215.252C72.1344 217.509 73.2667 219.381 75.039 220.76L76.9987 218.24L78.9584 215.72C78.4326 215.311 78.2454 214.928 78.187 214.461L75.0197 214.857ZM76.9987 218.24L75.0835 220.794C76.9184 222.17 79.0908 222.773 81.4037 222.773V219.581V216.389C80.2267 216.389 79.4624 216.098 78.9139 215.686L76.9987 218.24ZM81.4037 219.581V222.773C83.4778 222.773 85.5549 222.366 87.2392 221.141L85.3618 218.559L83.4843 215.978C83.296 216.115 82.7344 216.389 81.4037 216.389V219.581ZM85.3618 218.559L87.1846 221.18C88.9008 219.986 90.0221 218.189 90.0221 215.942H86.8301H83.6381C83.6381 215.961 83.6361 215.951 83.6437 215.922C83.6514 215.891 83.6643 215.859 83.6792 215.832C83.6934 215.807 83.7002 215.803 83.6844 215.82C83.6676 215.838 83.6242 215.88 83.539 215.939L85.3618 218.559ZM86.8301 215.942H90.0221C90.0221 214.785 89.7113 213.63 88.9982 212.611C88.3032 211.618 87.3598 210.945 86.3868 210.493L85.0426 213.388L83.6984 216.283C83.9171 216.385 83.8675 216.414 83.7682 216.272C83.7199 216.203 83.6821 216.124 83.6592 216.047C83.6372 215.973 83.6381 215.932 83.6381 215.942H86.8301ZM85.0426 213.388L86.5119 210.554C85.0391 209.791 82.9074 209.081 80.311 208.389L79.4885 211.473L78.666 214.557C81.1768 215.227 82.7479 215.794 83.5733 216.222L85.0426 213.388ZM79.4885 211.473L80.2391 208.371C77.6853 207.753 75.6735 207.135 74.1623 206.53L72.9768 209.494L71.7913 212.458C73.6849 213.215 76.0143 213.917 78.7379 214.576L79.4885 211.473ZM72.9768 209.494L74.1884 206.541C73.0032 206.055 71.9569 205.31 71.0334 204.259L68.6357 206.366L66.2379 208.473C67.783 210.231 69.6307 211.571 71.7653 212.447L72.9768 209.494ZM68.6357 206.366L71.0696 204.301C70.4963 203.625 70.0402 202.538 70.0402 200.684H66.8481H63.6561C63.6561 203.597 64.3916 206.298 66.2017 208.431L68.6357 206.366ZM66.8481 200.684H70.0402C70.0402 199.37 70.3987 198.211 71.1424 197.124L68.508 195.321L65.8736 193.519C64.4042 195.667 63.6561 198.082 63.6561 200.684H66.8481ZM68.508 195.321L71.1101 197.17C71.8826 196.083 73.0202 195.142 74.6673 194.403L73.3598 191.491L72.0524 188.579C69.5286 189.712 67.4316 191.325 65.9059 193.473L68.508 195.321ZM73.3598 191.491L74.6454 194.413C76.2874 193.69 78.3225 193.279 80.8291 193.279V190.087V186.895C77.6327 186.895 74.6883 187.419 72.0743 188.569L73.3598 191.491ZM80.8291 190.087V193.279C84.5033 193.279 87.0638 194.198 88.8522 195.714L90.9159 193.279L92.9796 190.843C89.7458 188.103 85.5819 186.895 80.8291 186.895V190.087ZM90.9159 193.279L88.8765 195.734C90.6491 197.206 91.6815 199.195 91.8816 201.997L95.0655 201.769L98.2494 201.542C97.9388 197.193 96.2048 193.522 92.9553 190.823L90.9159 193.279ZM95.0655 201.769V198.577H86.5109V201.769V204.961H95.0655V201.769ZM86.5109 201.769L89.6898 201.48C89.4861 199.239 88.4757 197.292 86.6548 195.908L84.7234 198.45L82.792 200.991C83.0991 201.224 83.2804 201.491 83.332 202.058L86.5109 201.769ZM84.7234 198.45L86.7669 195.997C85.0134 194.536 82.8294 193.981 80.5738 193.981V197.173V200.365C81.8081 200.365 82.3905 200.661 82.6799 200.902L84.7234 198.45ZM80.5738 197.173V193.981C78.6248 193.981 76.6576 194.33 75.0366 195.411L76.8072 198.067L78.5778 200.722C78.7443 200.611 79.2882 200.365 80.5738 200.365V197.173ZM76.8072 198.067L74.9767 195.452C73.248 196.662 72.3384 198.481 72.3384 200.556H75.5304H78.7224C78.7224 200.503 78.7276 200.488 78.7246 200.502C78.7211 200.517 78.7113 200.551 78.6899 200.592C78.6684 200.634 78.6444 200.667 78.6265 200.687C78.6096 200.706 78.6084 200.702 78.6377 200.682L76.8072 198.067ZM75.5304 200.556H72.3384C72.3384 201.712 72.6363 202.855 73.3024 203.878C73.9551 204.88 74.8528 205.602 75.8106 206.115L77.3179 203.301L78.8253 200.488C78.7083 200.425 78.6501 200.379 78.6297 200.361C78.6113 200.345 78.6264 200.355 78.6522 200.395C78.6645 200.414 78.677 200.436 78.6882 200.461C78.6995 200.485 78.7078 200.509 78.7137 200.53C78.7259 200.573 78.7224 200.586 78.7224 200.556H75.5304ZM77.3179 203.301L75.8904 206.156C77.3977 206.91 79.5192 207.594 82.0855 208.246L82.872 205.153L83.6585 202.059C81.2028 201.435 79.6216 200.884 78.7454 200.446L77.3179 203.301ZM82.872 205.153L82.0979 208.25C84.5644 208.866 86.5119 209.482 87.9807 210.085L89.1922 207.132L90.4038 204.179C88.5528 203.419 86.2868 202.716 83.6462 202.056L82.872 205.153ZM89.1922 207.132L87.9807 210.085C89.131 210.557 90.1331 211.294 91.0055 212.353L93.4695 210.324L95.9335 208.295C94.4225 206.46 92.5731 205.069 90.4038 204.179L89.1922 207.132ZM93.4695 210.324L91.0718 212.431C91.6914 213.136 92.1608 214.218 92.1932 216L95.3847 215.942L98.5762 215.884C98.5235 212.984 97.7161 210.321 95.8672 208.217L93.4695 210.324ZM95.3847 215.942H92.1927C92.1927 217.343 91.8123 218.523 91.059 219.583L93.661 221.432L96.2631 223.281C97.808 221.107 98.5767 218.626 98.5767 215.942H95.3847ZM93.661 221.432L91.0266 219.63C90.3147 220.67 89.2092 221.599 87.5236 222.341L88.8092 225.262L90.0947 228.184C92.6652 227.053 94.7942 225.429 96.2954 223.235L93.661 221.432ZM88.8092 225.262L87.5518 222.329C85.9462 223.017 83.9441 223.411 81.4675 223.411V226.603V229.795C84.6089 229.795 87.5013 229.296 90.0666 228.196L88.8092 225.262ZM129.79 191.938L128.206 194.709L128.227 194.722L128.249 194.734L129.79 191.938ZM134.641 197.109L131.786 198.536L131.802 198.568L131.819 198.6L134.641 197.109ZM136.429 226.029V229.221H139.621V226.029H136.429ZM127.491 226.029H124.299V229.221H127.491V226.029ZM125.385 200.046L123.032 202.203L123.047 202.219L123.062 202.235L125.385 200.046ZM113.766 200.046L111.445 197.854L111.443 197.856L113.766 200.046ZM111.659 226.029V229.221H114.851V226.029H111.659ZM102.721 226.029H99.5293V229.221H102.721V226.029ZM102.721 178.787V175.595H99.5293V178.787H102.721ZM111.659 178.787H114.851V175.595H111.659V178.787ZM111.659 195.066H108.467V204.642L114.213 196.981L111.659 195.066ZM116.255 191.491L117.552 194.408L117.579 194.396L117.605 194.384L116.255 191.491ZM122.639 190.15V193.342C124.831 193.342 126.657 193.824 128.206 194.709L129.79 191.938L131.373 189.166C128.751 187.668 125.81 186.958 122.639 186.958V190.15ZM129.79 191.938L128.249 194.734C129.722 195.545 130.903 196.769 131.786 198.536L134.641 197.109L137.496 195.681C136.082 192.853 134.028 190.629 131.33 189.142L129.79 191.938ZM134.641 197.109L131.819 198.6C132.715 200.295 133.237 202.48 133.237 205.281H136.429H139.621C139.621 201.697 138.952 198.434 137.464 195.618L134.641 197.109ZM136.429 205.281H133.237V226.029H136.429H139.621V205.281H136.429ZM136.429 226.029V222.837H127.491V226.029V229.221H136.429V226.029ZM127.491 226.029H130.683V206.493H127.491H124.299V226.029H127.491ZM127.491 206.493H130.683C130.683 203.177 129.85 200.129 127.707 197.856L125.385 200.046L123.062 202.235C123.728 202.942 124.299 204.192 124.299 206.493H127.491ZM125.385 200.046L127.738 197.889C125.626 195.585 122.796 194.555 119.639 194.555V197.747V200.939C121.334 200.939 122.334 201.442 123.032 202.203L125.385 200.046ZM119.639 197.747V194.555C116.456 194.555 113.599 195.573 111.445 197.854L113.766 200.046L116.086 202.237C116.826 201.454 117.885 200.939 119.639 200.939V197.747ZM113.766 200.046L111.443 197.856C109.3 200.129 108.467 203.177 108.467 206.493H111.659H114.851C114.851 204.192 115.422 202.942 116.088 202.235L113.766 200.046ZM111.659 206.493H108.467V226.029H111.659H114.851V206.493H111.659ZM111.659 226.029V222.837H102.721V226.029V229.221H111.659V226.029ZM102.721 226.029H105.913V178.787H102.721H99.5293V226.029H102.721ZM102.721 178.787V181.979H111.659V178.787V175.595H102.721V178.787ZM111.659 178.787H108.467V195.066H111.659H114.851V178.787H111.659ZM111.659 195.066L114.213 196.981C115.005 195.925 116.086 195.059 117.552 194.408L116.255 191.491L114.959 188.574C112.594 189.625 110.611 191.143 109.105 193.151L111.659 195.066ZM116.255 191.491L117.605 194.384C119.054 193.707 120.714 193.342 122.639 193.342V190.15V186.958C119.883 186.958 117.287 187.487 114.906 188.598L116.255 191.491ZM172.826 184.213L171.358 187.047L171.365 187.051L171.372 187.055L172.826 184.213ZM181.062 192.066L178.28 193.631L178.291 193.651L178.303 193.672L181.062 192.066ZM181.062 215.559L178.303 213.953L178.297 213.964L181.062 215.559ZM172.826 223.283L171.372 220.442L171.365 220.446L171.358 220.449L172.826 223.283ZM144.928 226.029H141.736V229.221H144.928V226.029ZM144.928 181.468V178.276H141.736V181.468H144.928ZM171.039 214.601L168.782 212.344L168.782 212.344L171.039 214.601ZM171.039 192.959L168.745 195.179L168.754 195.188L168.763 195.198L171.039 192.959ZM153.866 189.001V185.809H150.674V189.001H153.866ZM153.866 218.432H150.674V221.624H153.866V218.432ZM160.505 181.468V184.66C164.766 184.66 168.353 185.491 171.358 187.047L172.826 184.213L174.295 181.379C170.235 179.276 165.608 178.276 160.505 178.276V181.468ZM172.826 184.213L171.372 187.055C174.405 188.607 176.681 190.788 178.28 193.631L181.062 192.066L183.844 190.501C181.612 186.533 178.398 183.479 174.281 181.372L172.826 184.213ZM181.062 192.066L178.303 193.672C179.937 196.478 180.806 199.823 180.806 203.812H183.998H187.19C187.19 198.864 186.102 194.378 183.82 190.459L181.062 192.066ZM183.998 203.812H180.806C180.806 207.802 179.937 211.147 178.303 213.953L181.062 215.559L183.82 217.165C186.102 213.246 187.19 208.76 187.19 203.812H183.998ZM181.062 215.559L178.297 213.964C176.704 216.724 174.427 218.878 171.372 220.442L172.826 223.283L174.281 226.125C178.376 224.028 181.589 221.033 183.827 217.154L181.062 215.559ZM172.826 223.283L171.358 220.449C168.353 222.006 164.766 222.837 160.505 222.837V226.029V229.221C165.608 229.221 170.235 228.221 174.295 226.118L172.826 223.283ZM160.505 226.029V222.837H144.928V226.029V229.221H160.505V226.029ZM144.928 226.029H148.12V181.468H144.928H141.736V226.029H144.928ZM144.928 181.468V184.66H160.505V181.468V178.276H144.928V181.468ZM160.186 218.432V221.624C165.452 221.624 169.981 220.173 173.296 216.858L171.039 214.601L168.782 212.344C166.989 214.136 164.283 215.24 160.186 215.24V218.432ZM171.039 214.601L173.296 216.858C176.606 213.549 178.061 209.046 178.061 203.812H174.869H171.677C171.677 207.857 170.579 210.546 168.782 212.344L171.039 214.601ZM174.869 203.812H178.061C178.061 198.576 176.605 194.066 173.314 190.721L171.039 192.959L168.763 195.198C170.58 197.045 171.677 199.77 171.677 203.812H174.869ZM171.039 192.959L173.333 190.74C170.023 187.32 165.482 185.809 160.186 185.809V189.001V192.193C164.254 192.193 166.947 193.321 168.745 195.179L171.039 192.959ZM160.186 189.001V185.809H153.866V189.001V192.193H160.186V189.001ZM153.866 189.001H150.674V218.432H153.866H157.058V189.001H153.866ZM153.866 218.432V221.624H160.186V218.432V215.24H153.866V218.432ZM190.497 198.705L187.669 197.225L187.66 197.243L187.651 197.26L190.497 198.705ZM196.307 192.321L194.657 189.588L194.647 189.594L194.636 189.601L196.307 192.321ZM211.437 191.683L209.912 194.487L209.925 194.494L209.938 194.501L211.437 191.683ZM216.225 195.704L213.655 197.598L219.417 205.417V195.704H216.225ZM216.225 190.661V187.469H213.033V190.661H216.225ZM225.226 190.661H228.418V187.469H225.226V190.661ZM225.226 226.029V229.221H228.418V226.029H225.226ZM216.225 226.029H213.033V229.221H216.225V226.029ZM216.225 220.858H219.417V210.639L213.6 219.041L216.225 220.858ZM211.437 225.007L212.936 227.825L212.946 227.82L212.957 227.814L211.437 225.007ZM196.307 224.305L194.602 227.004L194.613 227.01L194.623 227.017L196.307 224.305ZM190.497 217.857L187.642 219.285L187.655 219.311L187.669 219.337L190.497 217.857ZM214.948 202.791L212.14 204.309L212.149 204.325L212.158 204.341L214.948 202.791ZM211.501 199.216L209.882 201.967L209.913 201.985L209.943 202.002L211.501 199.216ZM202.244 199.152L200.651 196.386L200.651 196.386L202.244 199.152ZM198.796 202.727L196.02 201.151L196.013 201.164L196.006 201.177L198.796 202.727ZM198.796 213.835L195.972 215.322L195.995 215.367L196.02 215.411L198.796 213.835ZM202.244 217.474L200.589 220.204L200.607 220.215L200.625 220.225L202.244 217.474ZM211.501 217.538L213.058 220.324L213.088 220.307L213.119 220.289L211.501 217.538ZM214.948 213.963L217.738 215.513L217.747 215.497L217.756 215.481L214.948 213.963ZM188.39 208.217H191.582C191.582 205.068 192.199 202.405 193.343 200.15L190.497 198.705L187.651 197.26C185.987 200.538 185.198 204.217 185.198 208.217H188.39ZM190.497 198.705L193.326 200.184C194.532 197.878 196.089 196.201 197.977 195.041L196.307 192.321L194.636 189.601C191.673 191.421 189.356 193.999 187.669 197.225L190.497 198.705ZM196.307 192.321L197.956 195.054C199.902 193.879 202.072 193.279 204.542 193.279V190.087V186.895C200.968 186.895 197.648 187.783 194.657 189.588L196.307 192.321ZM204.542 190.087V193.279C206.746 193.279 208.502 193.72 209.912 194.487L211.437 191.683L212.961 188.878C210.456 187.517 207.615 186.895 204.542 186.895V190.087ZM211.437 191.683L209.938 194.501C211.571 195.369 212.781 196.412 213.655 197.598L216.225 195.704L218.794 193.811C217.285 191.763 215.303 190.124 212.936 188.864L211.437 191.683ZM216.225 195.704H219.417V190.661H216.225H213.033V195.704H216.225ZM216.225 190.661V193.853H225.226V190.661V187.469H216.225V190.661ZM225.226 190.661H222.034V226.029H225.226H228.418V190.661H225.226ZM225.226 226.029V222.837H216.225V226.029V229.221H225.226V226.029ZM216.225 226.029H219.417V220.858H216.225H213.033V226.029H216.225ZM216.225 220.858L213.6 219.041C212.777 220.23 211.585 221.296 209.916 222.2L211.437 225.007L212.957 227.814C215.374 226.505 217.375 224.804 218.849 222.674L216.225 220.858ZM211.437 225.007L209.938 222.189C208.47 222.97 206.68 223.411 204.478 223.411V226.603V229.795C207.553 229.795 210.403 229.172 212.936 227.825L211.437 225.007ZM204.478 226.603V223.411C202.078 223.411 199.94 222.803 197.99 221.593L196.307 224.305L194.623 227.017C197.61 228.871 200.92 229.795 204.478 229.795V226.603ZM196.307 224.305L198.011 221.606C196.102 220.4 194.536 218.691 193.326 216.378L190.497 217.857L187.669 219.337C189.353 222.556 191.659 225.145 194.602 227.004L196.307 224.305ZM190.497 217.857L193.352 216.43C192.201 214.127 191.582 211.415 191.582 208.217H188.39H185.198C185.198 212.255 185.985 215.969 187.642 219.285L190.497 217.857ZM216.225 208.345H219.417C219.417 205.76 218.909 203.347 217.738 201.241L214.948 202.791L212.158 204.341C212.69 205.299 213.033 206.589 213.033 208.345H216.225ZM214.948 202.791L217.756 201.273C216.641 199.209 215.076 197.557 213.058 196.429L211.501 199.216L209.943 202.002C210.819 202.492 211.553 203.223 212.14 204.309L214.948 202.791ZM211.501 199.216L213.119 196.464C211.187 195.328 209.076 194.747 206.84 194.747V197.939V201.131C207.924 201.131 208.92 201.401 209.882 201.967L211.501 199.216ZM206.84 197.939V194.747C204.635 194.747 202.552 195.291 200.651 196.386L202.244 199.152L203.836 201.918C204.744 201.395 205.725 201.131 206.84 201.131V197.939ZM202.244 199.152L200.651 196.386C198.697 197.511 197.161 199.141 196.02 201.151L198.796 202.727L201.572 204.302C202.219 203.164 202.982 202.41 203.836 201.918L202.244 199.152ZM198.796 202.727L196.006 201.177C194.84 203.275 194.328 205.662 194.328 208.217H197.52H200.712C200.712 206.516 201.05 205.243 201.587 204.277L198.796 202.727ZM197.52 208.217H194.328C194.328 210.778 194.842 213.176 195.972 215.322L198.796 213.835L201.621 212.348C201.048 211.26 200.712 209.913 200.712 208.217H197.52ZM198.796 213.835L196.02 215.411C197.155 217.41 198.672 219.042 200.589 220.204L202.244 217.474L203.898 214.744C203.007 214.204 202.225 213.41 201.572 212.259L198.796 213.835ZM202.244 217.474L200.625 220.225C202.543 221.354 204.632 221.943 206.84 221.943V218.751V215.559C205.814 215.559 204.838 215.297 203.862 214.723L202.244 217.474ZM206.84 218.751V221.943C209.044 221.943 211.134 221.399 213.058 220.324L211.501 217.538L209.943 214.751C208.973 215.294 207.956 215.559 206.84 215.559V218.751ZM211.501 217.538L213.119 220.289C215.079 219.136 216.623 217.52 217.738 215.513L214.948 213.963L212.158 212.413C211.57 213.47 210.816 214.237 209.882 214.787L211.501 217.538ZM214.948 213.963L217.756 215.481C218.907 213.35 219.417 210.934 219.417 208.345H216.225H213.033C213.033 210.097 212.691 211.426 212.14 212.445L214.948 213.963ZM239.701 225.071L238.36 227.968L238.382 227.978L238.405 227.988L239.701 225.071ZM234.211 220.794L231.642 222.689L231.657 222.709L231.672 222.728L234.211 220.794ZM232.04 214.857V211.665H228.655L228.854 215.044L232.04 214.857ZM241.042 214.857L244.209 214.461L243.859 211.665H241.042V214.857ZM243.021 218.24L241.061 220.76L241.083 220.777L241.105 220.794L243.021 218.24ZM251.384 218.559L249.561 215.939L249.533 215.958L249.506 215.978L251.384 218.559ZM251.064 213.388L249.595 216.222L249.657 216.254L249.72 216.283L251.064 213.388ZM245.51 211.473L246.333 208.389L246.297 208.379L246.261 208.371L245.51 211.473ZM238.999 209.494L237.787 212.447L237.8 212.452L237.813 212.458L238.999 209.494ZM234.658 206.366L232.224 208.431L232.242 208.452L232.26 208.473L234.658 206.366ZM234.53 195.321L231.928 193.473L231.911 193.496L231.895 193.519L234.53 195.321ZM239.382 191.491L238.096 188.569L238.085 188.574L238.074 188.579L239.382 191.491ZM256.938 193.279L254.874 195.714L254.886 195.724L254.898 195.734L256.938 193.279ZM261.087 201.769V204.961H264.516L264.271 201.542L261.087 201.769ZM252.533 201.769L249.354 202.058L249.618 204.961H252.533V201.769ZM250.745 198.45L248.702 200.902L248.757 200.948L248.814 200.991L250.745 198.45ZM242.829 198.067L241.058 195.411L241.028 195.431L240.999 195.452L242.829 198.067ZM243.34 203.301L241.832 206.115L241.872 206.136L241.912 206.156L243.34 203.301ZM248.894 205.153L248.107 208.246L248.12 208.25L248.894 205.153ZM259.491 210.324L257.027 212.353L257.06 212.393L257.094 212.431L259.491 210.324ZM261.407 215.942H264.599V215.913L264.598 215.884L261.407 215.942ZM259.683 221.432L257.081 219.583L257.064 219.606L257.049 219.63L259.683 221.432ZM254.831 225.262L256.088 228.196L256.103 228.19L256.117 228.184L254.831 225.262ZM247.489 226.603V223.411C244.975 223.411 242.83 222.969 240.997 222.154L239.701 225.071L238.405 227.988C241.168 229.216 244.216 229.795 247.489 229.795V226.603ZM239.701 225.071L241.042 222.174C239.155 221.301 237.758 220.183 236.75 218.859L234.211 220.794L231.672 222.728C233.387 224.979 235.651 226.713 238.36 227.968L239.701 225.071ZM234.211 220.794L236.779 218.898C235.818 217.597 235.317 216.208 235.227 214.669L232.04 214.857L228.854 215.044C229.018 217.846 229.964 220.416 231.642 222.689L234.211 220.794ZM232.04 214.857V218.049H241.042V214.857V211.665H232.04V214.857ZM241.042 214.857L237.874 215.252C238.156 217.509 239.289 219.381 241.061 220.76L243.021 218.24L244.98 215.72C244.454 215.311 244.267 214.928 244.209 214.461L241.042 214.857ZM243.021 218.24L241.105 220.794C242.94 222.17 245.113 222.773 247.426 222.773V219.581V216.389C246.249 216.389 245.484 216.098 244.936 215.686L243.021 218.24ZM247.426 219.581V222.773C249.5 222.773 251.577 222.366 253.261 221.141L251.384 218.559L249.506 215.978C249.318 216.115 248.756 216.389 247.426 216.389V219.581ZM251.384 218.559L253.207 221.18C254.923 219.986 256.044 218.189 256.044 215.942H252.852H249.66C249.66 215.961 249.658 215.951 249.666 215.922C249.673 215.891 249.686 215.859 249.701 215.832C249.715 215.807 249.722 215.803 249.706 215.82C249.689 215.838 249.646 215.88 249.561 215.939L251.384 218.559ZM252.852 215.942H256.044C256.044 214.785 255.733 213.63 255.02 212.611C254.325 211.618 253.382 210.945 252.409 210.493L251.064 213.388L249.72 216.283C249.939 216.385 249.889 216.414 249.79 216.272C249.742 216.203 249.704 216.124 249.681 216.047C249.659 215.973 249.66 215.932 249.66 215.942H252.852ZM251.064 213.388L252.534 210.554C251.061 209.791 248.929 209.081 246.333 208.389L245.51 211.473L244.688 214.557C247.199 215.227 248.77 215.794 249.595 216.222L251.064 213.388ZM245.51 211.473L246.261 208.371C243.707 207.753 241.695 207.135 240.184 206.53L238.999 209.494L237.813 212.458C239.707 213.215 242.036 213.917 244.76 214.576L245.51 211.473ZM238.999 209.494L240.21 206.541C239.025 206.055 237.979 205.31 237.055 204.259L234.658 206.366L232.26 208.473C233.805 210.231 235.653 211.571 237.787 212.447L238.999 209.494ZM234.658 206.366L237.091 204.301C236.518 203.625 236.062 202.538 236.062 200.684H232.87H229.678C229.678 203.597 230.414 206.298 232.224 208.431L234.658 206.366ZM232.87 200.684H236.062C236.062 199.37 236.421 198.211 237.164 197.124L234.53 195.321L231.895 193.519C230.426 195.667 229.678 198.082 229.678 200.684H232.87ZM234.53 195.321L237.132 197.17C237.904 196.083 239.042 195.142 240.689 194.403L239.382 191.491L238.074 188.579C235.55 189.712 233.454 191.325 231.928 193.473L234.53 195.321ZM239.382 191.491L240.667 194.413C242.309 193.69 244.344 193.279 246.851 193.279V190.087V186.895C243.655 186.895 240.71 187.419 238.096 188.569L239.382 191.491ZM246.851 190.087V193.279C250.525 193.279 253.086 194.198 254.874 195.714L256.938 193.279L259.001 190.843C255.768 188.103 251.604 186.895 246.851 186.895V190.087ZM256.938 193.279L254.898 195.734C256.671 197.206 257.703 199.195 257.903 201.997L261.087 201.769L264.271 201.542C263.961 197.193 262.227 193.522 258.977 190.823L256.938 193.279ZM261.087 201.769V198.577H252.533V201.769V204.961H261.087V201.769ZM252.533 201.769L255.712 201.48C255.508 199.239 254.498 197.292 252.677 195.908L250.745 198.45L248.814 200.991C249.121 201.224 249.302 201.491 249.354 202.058L252.533 201.769ZM250.745 198.45L252.789 195.997C251.035 194.536 248.851 193.981 246.596 193.981V197.173V200.365C247.83 200.365 248.412 200.661 248.702 200.902L250.745 198.45ZM246.596 197.173V193.981C244.647 193.981 242.679 194.33 241.058 195.411L242.829 198.067L244.6 200.722C244.766 200.611 245.31 200.365 246.596 200.365V197.173ZM242.829 198.067L240.999 195.452C239.27 196.662 238.36 198.481 238.36 200.556H241.552H244.744C244.744 200.503 244.75 200.488 244.746 200.502C244.743 200.517 244.733 200.551 244.712 200.592C244.69 200.634 244.666 200.667 244.648 200.687C244.631 200.706 244.63 200.702 244.66 200.682L242.829 198.067ZM241.552 200.556H238.36C238.36 201.712 238.658 202.855 239.324 203.878C239.977 204.88 240.875 205.602 241.832 206.115L243.34 203.301L244.847 200.488C244.73 200.425 244.672 200.379 244.652 200.361C244.633 200.345 244.648 200.355 244.674 200.395C244.686 200.414 244.699 200.436 244.71 200.461C244.721 200.485 244.73 200.509 244.736 200.53C244.748 200.573 244.744 200.586 244.744 200.556H241.552ZM243.34 203.301L241.912 206.156C243.42 206.91 245.541 207.594 248.107 208.246L248.894 205.153L249.68 202.059C247.225 201.435 245.643 200.884 244.767 200.446L243.34 203.301ZM248.894 205.153L248.12 208.25C250.586 208.866 252.534 209.482 254.003 210.085L255.214 207.132L256.426 204.179C254.575 203.419 252.309 202.716 249.668 202.056L248.894 205.153ZM255.214 207.132L254.003 210.085C255.153 210.557 256.155 211.294 257.027 212.353L259.491 210.324L261.955 208.295C260.444 206.46 258.595 205.069 256.426 204.179L255.214 207.132ZM259.491 210.324L257.094 212.431C257.713 213.136 258.183 214.218 258.215 216L261.407 215.942L264.598 215.884C264.545 212.984 263.738 210.321 261.889 208.217L259.491 210.324ZM261.407 215.942H258.215C258.215 217.343 257.834 218.523 257.081 219.583L259.683 221.432L262.285 223.281C263.83 221.107 264.599 218.626 264.599 215.942H261.407ZM259.683 221.432L257.049 219.63C256.337 220.67 255.231 221.599 253.546 222.341L254.831 225.262L256.117 228.184C258.687 227.053 260.816 225.429 262.317 223.235L259.683 221.432ZM254.831 225.262L253.574 222.329C251.968 223.017 249.966 223.411 247.489 223.411V226.603V229.795C250.631 229.795 253.523 229.296 256.088 228.196L254.831 225.262ZM295.811 191.938L294.228 194.709L294.249 194.722L294.271 194.734L295.811 191.938ZM300.663 197.109L297.808 198.536L297.824 198.568L297.841 198.6L300.663 197.109ZM302.451 226.029V229.221H305.643V226.029H302.451ZM293.513 226.029H290.321V229.221H293.513V226.029ZM291.406 200.046L289.053 202.203L289.069 202.219L289.084 202.235L291.406 200.046ZM279.788 200.046L277.467 197.854L277.465 197.856L279.788 200.046ZM277.681 226.029V229.221H280.873V226.029H277.681ZM268.743 226.029H265.551V229.221H268.743V226.029ZM268.743 178.787V175.595H265.551V178.787H268.743ZM277.681 178.787H280.873V175.595H277.681V178.787ZM277.681 195.066H274.489V204.642L280.234 196.981L277.681 195.066ZM282.277 191.491L283.574 194.408L283.601 194.396L283.627 194.384L282.277 191.491ZM288.661 190.15V193.342C290.853 193.342 292.679 193.824 294.228 194.709L295.811 191.938L297.395 189.166C294.773 187.668 291.832 186.958 288.661 186.958V190.15ZM295.811 191.938L294.271 194.734C295.744 195.545 296.924 196.769 297.808 198.536L300.663 197.109L303.518 195.681C302.104 192.853 300.049 190.629 297.352 189.142L295.811 191.938ZM300.663 197.109L297.841 198.6C298.736 200.295 299.259 202.48 299.259 205.281H302.451H305.643C305.643 201.697 304.974 198.434 303.486 195.618L300.663 197.109ZM302.451 205.281H299.259V226.029H302.451H305.643V205.281H302.451ZM302.451 226.029V222.837H293.513V226.029V229.221H302.451V226.029ZM293.513 226.029H296.705V206.493H293.513H290.321V226.029H293.513ZM293.513 206.493H296.705C296.705 203.177 295.872 200.129 293.729 197.856L291.406 200.046L289.084 202.235C289.75 202.942 290.321 204.192 290.321 206.493H293.513ZM291.406 200.046L293.759 197.889C291.648 195.585 288.818 194.555 285.661 194.555V197.747V200.939C287.356 200.939 288.356 201.442 289.053 202.203L291.406 200.046ZM285.661 197.747V194.555C282.478 194.555 279.621 195.573 277.467 197.854L279.788 200.046L282.108 202.237C282.848 201.454 283.907 200.939 285.661 200.939V197.747ZM279.788 200.046L277.465 197.856C275.322 200.129 274.489 203.177 274.489 206.493H277.681H280.873C280.873 204.192 281.444 202.942 282.11 202.235L279.788 200.046ZM277.681 206.493H274.489V226.029H277.681H280.873V206.493H277.681ZM277.681 226.029V222.837H268.743V226.029V229.221H277.681V226.029ZM268.743 226.029H271.935V178.787H268.743H265.551V226.029H268.743ZM268.743 178.787V181.979H277.681V178.787V175.595H268.743V178.787ZM277.681 178.787H274.489V195.066H277.681H280.873V178.787H277.681ZM277.681 195.066L280.234 196.981C281.027 195.925 282.108 195.059 283.574 194.408L282.277 191.491L280.981 188.574C278.616 189.625 276.633 191.143 275.127 193.151L277.681 195.066ZM282.277 191.491L283.627 194.384C285.076 193.707 286.736 193.342 288.661 193.342V190.15V186.958C285.905 186.958 283.309 187.487 280.927 188.598L282.277 191.491Z" fill="#FD5D69" mask="url(#path-1-outside-1_9309_12284)"/>
<circle cx="154.336" cy="76.3365" r="75.4976" fill="#FFFDF9" stroke="#FD5D69" stroke-width="1.67772"/>
<path d="M138.027 89.6427C136.016 94.7141 134.482 99.9808 133.447 105.368C132.722 109.39 132.149 116.026 135.47 118.922C136.135 119.595 136.959 120.069 137.855 120.295C138.752 120.521 139.69 120.491 140.573 120.208C141.455 119.926 142.25 119.4 142.876 118.686C143.501 117.973 143.935 117.096 144.133 116.147C144.629 112.688 143.675 97.2839 143.56 93.3023C143.56 90.6881 143.56 88.0336 143.56 85.2585C143.56 70.3776 143.064 45.6037 143.026 30.7228C142.995 30.272 142.843 29.8392 142.586 29.4767C142.33 29.1142 141.981 28.837 141.58 28.6765C141.179 28.5159 140.743 28.4787 140.323 28.5704C139.903 28.6622 139.517 28.8787 139.21 29.1939C129.287 41.8628 125.051 58.353 131.195 73.9578C132.233 76.7851 133.919 79.2969 136.104 81.2691C138.288 83.2413 140.903 84.6117 143.713 85.2585" stroke="#FD5D69" stroke-width="4.30892" stroke-linecap="round" stroke-linejoin="round"/>
<path d="M164.729 67.7586C164.271 76.4458 162.515 84.9718 161.37 93.5786C160.34 99.0885 159.842 104.694 159.882 110.309C160.187 114.613 161.676 120.404 166.713 120.444C168.094 120.488 169.445 120.019 170.53 119.118C171.744 117.826 172.579 116.191 172.934 114.412C173.541 111.781 173.759 109.068 173.583 106.368C173.583 102.064 172.629 97.8821 172.056 93.6591C170.911 85.0524 169.156 76.5263 168.698 67.8391M163.278 30.1134L163.278 50.2228M170.301 50.102L170.301 29.9927M157.058 30.1134L157.058 57.6636C157.068 60.359 158.088 62.9413 159.897 64.8472C161.705 66.7532 164.156 67.8285 166.713 67.8391C169.271 67.8285 171.721 66.7532 173.53 64.8472C175.338 62.9413 176.359 60.359 176.369 57.6636L176.369 30.1134" stroke="#FD5D69" stroke-width="4.30892" stroke-linecap="round" stroke-linejoin="round"/>
</svg>
